<svg width="331" height="221" viewBox="0 0 331 221" fill="none" xmlns="http://www.w3.org/2000/svg">
<rect width="109.999" height="109.999" transform="matrix(-1 0 0 1 330.531 0.716797)" fill="#E4E4E4"/>
<rect width="109.999" height="109.999" transform="matrix(-1 0 0 1 330.531 110.716)" fill="#C9C9C9"/>
<rect width="109.999" height="109.999" transform="matrix(-1 0 0 1 220.531 0.716797)" fill="#EDEDED"/>
<rect width="109.999" height="109.999" transform="matrix(-1 0 0 1 110.531 0.716797)" fill="#F7F7F7"/>
<rect width="109.999" height="109.999" transform="matrix(-1 0 0 1 220.531 110.716)" fill="#F7F7F7"/>
<path d="M110.531 110.716C110.531 125.162 113.376 139.466 118.904 152.812C124.432 166.157 132.535 178.284 142.749 188.498C152.964 198.713 165.09 206.815 178.436 212.343C191.782 217.872 206.086 220.717 220.531 220.717L220.531 110.716H110.531Z" fill="#E4E4E4"/>
<path d="M330.531 110.715C316.086 110.715 301.782 113.56 288.436 119.088C275.09 124.616 262.964 132.719 252.749 142.933C242.535 153.148 234.432 165.274 228.904 178.62C223.376 191.966 220.531 206.27 220.531 220.716L330.531 220.716L330.531 110.715Z" fill="#DFDFDF"/>
<path d="M330.531 142.876C320.309 142.876 310.187 144.89 300.743 148.802C291.3 152.713 282.719 158.447 275.491 165.675C268.263 172.903 262.529 181.484 258.617 190.928C254.705 200.372 252.692 210.494 252.692 220.716L330.531 220.716L330.531 142.876Z" fill="#F7F7F7"/>
<path fill-rule="evenodd" clip-rule="evenodd" d="M110.013 110.716H110.532L110.532 110.344C110.484 96.0251 107.64 81.852 102.16 68.6208C96.6317 55.2749 88.5292 43.1485 78.3147 32.934C68.1002 22.7195 55.9738 14.6169 42.6279 9.08887C29.4417 3.62699 15.3203 0.78407 1.05113 0.716797H0.532471V1.08555C0.580475 15.4057 3.42414 29.5799 8.90515 42.8122C14.4332 56.1581 22.5358 68.2845 32.7503 78.499C42.9648 88.7135 55.0912 96.8161 68.4371 102.344C81.6228 107.806 95.7439 110.649 110.013 110.716Z" fill="#DFDFDF"/>
<path fill-rule="evenodd" clip-rule="evenodd" d="M330.011 110.716H330.531L330.531 110.349C330.483 96.0281 327.64 81.8534 322.159 68.6208C316.631 55.2749 308.528 43.1485 298.313 32.934C288.099 22.7195 275.973 14.6169 262.627 9.08887C249.44 3.62699 235.319 0.78407 221.05 0.716797H220.531V1.08097C220.579 15.4026 223.422 29.5785 228.904 42.8122C234.432 56.1581 242.535 68.2845 252.749 78.499C262.964 88.7135 275.09 96.8161 288.436 102.344C301.622 107.806 315.743 110.649 330.011 110.716Z" fill="#F5F5F5"/>
<path fill-rule="evenodd" clip-rule="evenodd" d="M220.532 1.08779L220.532 0.716792L220.013 0.716792C205.744 0.784119 191.623 3.62704 178.437 9.08887C165.091 14.6169 152.965 22.7195 142.75 32.934C132.536 43.1485 124.433 55.2749 118.905 68.6208C113.424 81.8529 110.581 96.027 110.532 110.347L110.532 110.716L111.049 110.716C125.319 110.649 139.441 107.806 152.628 102.344C165.974 96.8161 178.1 88.7135 188.315 78.499C198.529 68.2845 206.632 56.1581 212.16 42.8122C217.64 29.5806 220.484 15.4071 220.532 1.08779Z" fill="#DFDFDF"/>
</svg>
