<svg width="95" height="25" viewBox="0 0 95 25" fill="none" xmlns="http://www.w3.org/2000/svg">
<g clip-path="url(#clip0_2_10073)">
<path d="M9.57574 0.779894C11.8702 0.792477 13.9989 1.54744 15.9555 3.07625C16.2487 3.30274 16.2806 3.56069 16.0511 3.85639L13.6101 6.98321C13.5081 7.10904 13.3807 7.17825 13.215 7.2097C13.0492 7.24116 12.9218 7.17825 12.7879 7.04613C11.8064 6.19679 10.7293 5.77526 9.58211 5.76897C7.7147 5.75639 6.79056 6.4044 6.78418 7.66268V7.75705C6.77781 8.43653 7.10285 8.95871 7.75932 9.31732C8.41578 9.67593 9.58848 10.0094 11.2966 10.3365C15.6496 11.167 17.8038 13.3438 17.7847 16.8733V17.0054C17.7719 19.2389 16.9434 21.013 15.2672 22.3342C13.591 23.6554 11.3858 24.2908 8.66434 24.272C7.31955 24.2657 5.94289 24.0014 4.53437 23.5044C3.12585 23.0137 1.9149 22.3594 0.869662 21.5793C0.748567 21.4786 0.684833 21.3528 0.652966 21.1892C0.621099 21.0256 0.652966 20.8998 0.75494 20.7991L3.22782 17.6094C3.45727 17.32 3.71858 17.2885 4.01813 17.515C4.63635 18.0372 5.35654 18.4587 6.21058 18.7859C7.05824 19.113 7.88041 19.2829 8.66434 19.2829C9.90715 19.2892 10.8313 19.1004 11.424 18.7167C12.0168 18.3329 12.3163 17.817 12.3163 17.169V17.0369C12.3163 16.7475 12.2844 16.4895 12.2207 16.2945C12.157 16.0994 12.0231 15.9044 11.8001 15.7408C11.5706 15.5773 11.373 15.4451 11.2137 15.3508C11.048 15.2501 10.723 15.1243 10.2641 14.9922C9.80518 14.86 9.44827 14.7594 9.14872 14.6965L7.70833 14.363C7.64459 14.3316 7.54262 14.3001 7.41515 14.2624C6.75869 14.0988 6.23607 13.9667 5.84092 13.866C5.44577 13.7653 4.92315 13.5389 4.27306 13.2117C3.62297 12.8845 3.12585 12.5259 2.76256 12.1044C2.40565 11.6829 2.08061 11.0978 1.78743 10.3491C1.49426 9.60043 1.36679 8.72593 1.37316 7.75705V7.62494C1.38591 5.52361 2.14434 3.84381 3.66121 2.58553C5.18446 1.33983 7.15384 0.704397 9.57574 0.71698V0.779894Z" fill="#4D61FF"/>
<path d="M21.2438 1.2648C21.3458 1.17043 21.4733 1.10122 21.639 1.10751L25.769 1.12639C25.9347 1.12639 26.0621 1.19559 26.1641 1.28996C26.2597 1.39063 26.3298 1.51645 26.3234 1.68003L26.2087 23.4294C26.2087 23.593 26.1386 23.7188 26.043 23.8195C25.941 23.9138 25.8136 23.983 25.6479 23.9767L21.5179 23.9579C21.3522 23.9579 21.2247 23.8887 21.1227 23.7943C21.0271 23.6936 20.957 23.5678 20.9634 23.4042L21.0781 1.65487C21.0781 1.49129 21.1482 1.35917 21.2438 1.2648Z" fill="#4D61FF"/>
<path d="M30.7849 1.30835C30.9187 1.21398 31.0462 1.15106 31.2119 1.15106L35.31 1.16994C35.4757 1.16994 35.6032 1.23914 35.7051 1.33351C35.8007 1.43417 35.8708 1.56 35.8645 1.72358L35.7752 19.006C35.7752 19.2325 35.9027 19.3647 36.164 19.3647L44.6534 19.4087C44.8191 19.4087 44.9466 19.4779 45.0485 19.5723C45.1505 19.6666 45.2142 19.7988 45.2079 19.9623L45.1888 23.5233C45.1888 23.6868 45.1186 23.8127 45.023 23.9133C44.9211 24.0077 44.7936 24.0769 44.6279 24.0706L31.0908 24.0014C30.9251 24.0014 30.7976 23.9322 30.6638 23.8378C30.5363 23.7372 30.4662 23.6114 30.4662 23.4478L30.5809 1.69841C30.5873 1.53484 30.6574 1.40901 30.7849 1.30835Z" fill="#4D61FF"/>
<path d="M42.5183 1.8872C42.4545 1.72362 42.4864 1.56634 42.5884 1.40276C42.6903 1.23918 42.8178 1.17627 42.9835 1.17627L47.3111 1.20144C47.6361 1.20144 47.8656 1.36501 48.0313 1.69216L52.6838 15.1432C52.7157 15.2375 52.7794 15.3067 52.8814 15.3067C52.977 15.3067 53.0471 15.2438 53.079 15.1432L57.8718 1.7362C57.9738 1.41534 58.2032 1.25177 58.5601 1.25177L62.8877 1.27693C63.0534 1.27693 63.1808 1.34614 63.2828 1.50342C63.3784 1.667 63.4103 1.83057 63.3466 1.98786L54.7616 23.668C54.6596 23.9574 54.4302 24.121 54.0732 24.1147L51.4856 24.1021C51.1224 24.1021 50.8993 23.9385 50.7973 23.6428L42.4545 1.8872H42.5183Z" fill="#4D61FF"/>
<path d="M65.7684 1.49032C65.8704 1.39595 65.9978 1.32675 66.1635 1.33304L70.2935 1.35191C70.4592 1.35191 70.5866 1.42112 70.6886 1.51549C70.7842 1.61615 70.8543 1.74198 70.8479 1.90556L70.7332 23.6549C70.7332 23.8185 70.6631 23.9443 70.5675 24.045C70.4655 24.1394 70.3381 24.2086 70.1724 24.2023L66.0424 24.1834C65.8767 24.1834 65.7493 24.1142 65.6473 24.0198C65.5517 23.9192 65.4816 23.7933 65.488 23.6298L65.6027 1.88039C65.6027 1.71681 65.6664 1.58469 65.7684 1.49032Z" fill="#4D61FF"/>
<path d="M93.9773 23.6377C94.041 23.8013 94.0092 23.9586 93.9072 24.1222C93.8052 24.2857 93.6778 24.3486 93.5121 24.3486L89.1845 24.3235C88.8595 24.3235 88.63 24.1599 88.4643 23.8327L83.8117 10.3817C83.7799 10.2874 83.7161 10.2182 83.6141 10.2182C83.5185 10.2182 83.4484 10.2811 83.4166 10.3817L78.6238 23.7887C78.5218 24.1096 78.2923 24.2731 77.9354 24.2731L73.6079 24.248C73.4422 24.248 73.3147 24.1788 73.2127 24.0215C73.1171 23.8579 73.0853 23.6943 73.149 23.5371L81.7212 1.86319C81.8232 1.57378 82.0527 1.4102 82.4096 1.4165L84.9972 1.42908C85.3605 1.42908 85.5835 1.59265 85.6855 1.88835L94.0283 23.644L93.9773 23.6377Z" fill="#4D61FF"/>
</g>
<defs>
<clipPath id="clip0_2_10073">
<rect width="93.5258" height="24" fill="white" transform="translate(0.53125 0.716797)"/>
</clipPath>
</defs>
</svg>
