<svg width="157" height="119" viewBox="0 0 157 119" fill="none" xmlns="http://www.w3.org/2000/svg">
<path d="M0.53125 4.7218C0.53125 2.51266 2.32211 0.721802 4.53125 0.721802H152.531C154.74 0.721802 156.531 2.51266 156.531 4.7218V114.722C156.531 116.931 154.74 118.722 152.531 118.722H4.53125C2.32211 118.722 0.53125 116.931 0.53125 114.722V4.7218Z" fill="#FF7875"/>
<mask id="mask0_9_12026" style="mask-type:alpha" maskUnits="userSpaceOnUse" x="91" y="58" width="66" height="61">
<rect x="91.9141" y="58.3741" width="64.6154" height="60" fill="#C4C4C4"/>
</mask>
<g mask="url(#mask0_9_12026)">
<path d="M164.081 93.8831C164.081 93.2832 163.548 92.7961 162.891 92.7961L137.125 92.7954V74.9123H162.393V72.7376H137.125V68.629H162.393V66.4542L115.555 66.455C114.898 66.455 114.365 66.942 114.365 67.542V92.7957H99.1201C98.4631 92.7957 97.9297 93.2828 97.9297 93.8827C97.9297 106.414 107.443 117.068 120.593 120.823H105.405V122.998H156.604V120.823H141.419C154.568 117.069 164.081 106.416 164.081 93.8846L164.081 93.8831ZM130.332 68.6294H134.743V92.7965H130.332V68.6294ZM123.54 68.6294H127.95V92.7965H123.54V68.6294ZM116.748 68.6294H121.158V92.7965H116.748V68.6294ZM100.338 94.9698H161.672C161.003 108.922 147.503 120.097 131.007 120.097C114.508 120.097 101.008 108.921 100.338 94.9698Z" fill="white" fill-opacity="0.38"/>
</g>
</svg>
