<svg width="157" height="119" viewBox="0 0 157 119" fill="none" xmlns="http://www.w3.org/2000/svg">
<path d="M0.53125 4.7218C0.53125 2.51266 2.32211 0.721802 4.53125 0.721802H152.531C154.74 0.721802 156.531 2.51266 156.531 4.7218V114.722C156.531 116.931 154.74 118.722 152.531 118.722H4.53125C2.32211 118.722 0.53125 116.931 0.53125 114.722V4.7218Z" fill="#69C0FF"/>
<mask id="mask0_9_12002" style="mask-type:alpha" maskUnits="userSpaceOnUse" x="91" y="58" width="66" height="61">
<rect x="91.9141" y="58.7218" width="64.6154" height="60" fill="#C4C4C4"/>
</mask>
<g mask="url(#mask0_9_12002)">
<path d="M125.653 66.0241V61.2263C125.653 60.4268 125.069 59.8937 124.194 59.8937C123.318 59.8937 122.734 60.4268 122.734 61.2263V66.0241C122.734 66.8236 123.318 67.3568 124.194 67.3568C125.069 67.3572 125.653 66.6907 125.653 66.0241Z" fill="white" fill-opacity="0.38"/>
<path d="M138.806 66.1568L135.157 69.4886C134.573 70.0218 134.573 70.8212 135.157 71.3544C135.741 71.8877 136.616 71.8876 137.2 71.3544L140.849 68.0226C141.433 67.4895 141.433 66.69 140.849 66.1568C140.265 65.6237 139.389 65.6237 138.806 66.1568Z" fill="white" fill-opacity="0.38"/>
<path d="M139.664 81.3513C139.664 82.1509 140.248 82.684 141.123 82.684H146.378C147.253 82.684 147.837 82.1508 147.837 81.3513C147.837 80.5519 147.253 80.0187 146.378 80.0187H141.123C140.248 80.0187 139.664 80.6853 139.664 81.3513Z" fill="white" fill-opacity="0.38"/>
<path d="M100.703 81.3513C100.703 82.1509 101.287 82.684 102.163 82.684H107.417C108.292 82.684 108.876 82.1508 108.876 81.3513C108.876 80.5519 108.292 80.0187 107.417 80.0187H102.163C101.287 80.0187 100.703 80.6853 100.703 81.3513Z" fill="white" fill-opacity="0.38"/>
<path d="M111.204 71.4879C111.788 72.021 112.663 72.021 113.247 71.4879C113.831 70.9547 113.831 70.1553 113.247 69.6221L109.598 66.1568C109.015 65.6237 108.139 65.6237 107.555 66.1568C106.971 66.69 106.971 67.4894 107.555 68.0227L111.204 71.4879Z" fill="white" fill-opacity="0.38"/>
<path d="M147.842 106.274C148.279 105.607 148.426 104.808 147.988 104.141L147.258 101.742C145.214 95.0786 139.085 90.1473 131.641 89.4811C134.122 87.4819 135.727 84.6832 135.727 81.4848C135.727 75.6206 130.619 70.9562 124.197 70.9562C117.775 70.9562 112.667 75.6206 112.667 81.4848C112.667 84.6832 114.272 87.6154 116.753 89.4811C109.31 90.2806 103.034 95.0784 101.136 101.876L100.406 104.141C100.115 104.808 100.115 105.607 100.552 106.274C101.136 107.207 102.304 107.74 103.618 107.74H104.201L101.428 112.404C99.9687 114.803 99.9687 117.869 101.574 120.267C103.034 122.533 105.515 123.865 108.288 123.865H140.106C142.879 123.865 145.36 122.533 146.82 120.267C148.425 117.868 148.425 114.803 146.966 112.404L144.193 107.74H144.776C146.09 107.74 147.258 107.207 147.842 106.274L147.842 106.274ZM115.586 81.3516C115.586 76.9535 119.381 73.4887 124.197 73.4887C129.014 73.4887 132.808 76.954 132.808 81.3516C132.808 85.7498 129.014 89.215 124.197 89.215C119.38 89.215 115.586 85.7498 115.586 81.3516ZM144.485 113.604C145.506 115.203 145.506 117.202 144.339 118.801C143.463 120.268 141.858 121.067 140.106 121.067L125.657 121.067V117.602C125.657 115.736 127.262 114.27 129.306 114.27H136.603C137.479 114.27 138.063 113.737 138.063 112.938C138.063 112.138 137.479 111.605 136.603 111.605H129.306C127.262 111.605 125.365 112.538 124.197 113.871C123.03 112.538 121.132 111.605 119.089 111.605H111.791C110.916 111.605 110.332 112.138 110.332 112.938C110.332 113.737 110.916 114.27 111.791 114.27H119.089C121.132 114.27 122.738 115.736 122.738 117.602V121.2H108.289C106.537 121.2 104.931 120.401 104.056 118.935C103.034 117.335 103.034 115.337 103.91 113.737L107.559 107.74H118.505C120.841 107.74 122.884 106.807 124.197 105.341C125.511 106.807 127.554 107.74 129.889 107.74H140.836L144.485 113.604ZM129.889 105.074C127.554 105.074 125.657 103.608 125.657 101.742V99.2102C125.657 98.4107 125.073 97.8775 124.197 97.8775C123.322 97.8775 122.738 98.4107 122.738 99.2102V101.742C122.738 103.608 120.841 105.074 118.505 105.074H103.618C103.472 105.074 103.326 105.074 103.18 104.941L103.91 102.542C105.662 96.8112 111.062 92.5465 117.63 92.1468C118.652 92.0134 119.673 92.0134 120.695 92.0134H127.847C128.868 92.0134 129.89 92.0134 130.912 92.1468C137.334 92.5465 142.88 96.8112 144.631 102.542L145.361 105.074C145.215 105.074 145.069 105.208 144.923 105.208H129.89L129.889 105.074Z" fill="white" fill-opacity="0.38"/>
</g>
</svg>
