<svg width="157" height="119" viewBox="0 0 157 119" fill="none" xmlns="http://www.w3.org/2000/svg">
<path d="M0.53125 4.7218C0.53125 2.51266 2.32211 0.721802 4.53125 0.721802H152.531C154.74 0.721802 156.531 2.51266 156.531 4.7218V114.722C156.531 116.931 154.74 118.722 152.531 118.722H4.53125C2.32211 118.722 0.53125 116.931 0.53125 114.722V4.7218Z" fill="#69C0FF"/>
<mask id="mask0_9_12042" style="mask-type:alpha" maskUnits="userSpaceOnUse" x="91" y="58" width="66" height="61">
<rect x="91.9141" y="58.7218" width="64.6154" height="60" fill="#C4C4C4"/>
</mask>
<g mask="url(#mask0_9_12042)">
<path d="M145.523 63.5992C145.195 63.632 144.887 63.7648 144.651 63.9766L111.431 94.3111C111.185 94.5286 111.031 94.8176 110.995 95.1281L109.962 103.655C109.91 104.061 110.065 104.468 110.382 104.758C110.7 105.048 111.145 105.189 111.591 105.142L120.929 104.178V104.178C121.258 104.146 121.565 104.013 121.8 103.801L155.021 73.4665H155.022C155.3 73.2144 155.457 72.8712 155.457 72.513C155.457 72.1553 155.3 71.8121 155.022 71.56L146.717 63.9761H146.716C146.401 63.6932 145.963 63.5543 145.523 63.5992L145.523 63.5992ZM145.684 66.8253L151.925 72.5237L149.86 74.4092L143.619 68.7107L145.684 66.8253ZM93.7885 70.303C92.9271 70.3273 92.3383 71.04 92.3203 71.6436V119.911C92.3203 120.613 93.0198 121.251 93.7885 121.251H146.648C147.416 121.251 148.116 120.613 148.116 119.911V91.0846C148.127 90.3761 147.424 89.7229 146.648 89.7229C145.872 89.7229 145.168 90.3761 145.18 91.0846V118.57H95.2569V72.9844H125.357C126.133 72.9942 126.849 72.3522 126.849 71.6438C126.849 70.9353 126.133 70.2928 125.357 70.3031L93.7885 70.303ZM141.532 70.6172L147.773 76.3157L120.127 101.56L113.083 102.272L113.863 95.8828L141.532 70.6172Z" fill="white" fill-opacity="0.38"/>
</g>
</svg>
