<svg width="157" height="119" viewBox="0 0 157 119" fill="none" xmlns="http://www.w3.org/2000/svg">
<path d="M0.53125 4.7218C0.53125 2.51266 2.32211 0.721802 4.53125 0.721802H152.531C154.74 0.721802 156.531 2.51266 156.531 4.7218V114.722C156.531 116.931 154.74 118.722 152.531 118.722H4.53125C2.32211 118.722 0.53125 116.931 0.53125 114.722V4.7218Z" fill="#69C0FF"/>
<mask id="mask0_9_12034" style="mask-type:alpha" maskUnits="userSpaceOnUse" x="91" y="58" width="66" height="61">
<rect x="91.9141" y="58.3741" width="64.6154" height="60" fill="#C4C4C4"/>
</mask>
<g mask="url(#mask0_9_12034)">
<path d="M164.164 106.318H162.718V100.376C162.718 97.4644 160.122 95.0938 156.933 95.0938H126.563C125.767 95.0938 125.117 95.6879 125.117 96.4142V97.7347H120.778C120.778 94.4596 117.857 91.7924 114.27 91.7924C112.933 91.7924 111.689 92.1622 110.655 92.796L110.654 87.8306C110.654 87.1042 110.004 86.5101 109.208 86.5101H101.977C101.182 86.5101 100.531 87.1043 100.531 87.8306V119.524C100.531 120.25 101.182 120.844 101.977 120.844C102.773 120.844 103.423 120.25 103.423 119.524V115.562H162.717V119.524C162.717 120.25 163.368 120.844 164.164 120.844C164.959 120.844 165.61 120.25 165.61 119.524V107.639C165.61 106.913 164.959 106.319 164.164 106.319L164.164 106.318ZM128.009 97.7347H156.933C158.531 97.7347 159.825 98.9165 159.825 100.376V106.318L128.009 106.318L128.009 97.7347ZM125.116 100.376V106.318H120.778V100.375L125.116 100.376ZM110.654 106.318V102.356H117.885V106.318H110.654ZM114.27 94.4333C116.266 94.4333 117.885 95.9122 117.885 97.7347V99.7156H110.654V97.7347C110.654 95.9122 112.275 94.4333 114.27 94.4333ZM103.424 89.1509H107.762V106.318H103.424V89.1509ZM103.424 108.959H162.718V112.921H103.424V108.959ZM118.609 77.9262C118.609 77.1998 119.259 76.6057 120.055 76.6057H125.84C126.375 76.6057 126.867 76.8765 127.112 77.3058C127.365 77.735 127.336 78.2564 127.04 78.6594L122.752 84.5294L125.84 84.5289C126.635 84.5289 127.286 85.1231 127.286 85.8494C127.286 86.5757 126.635 87.1698 125.84 87.1698H120.055C119.519 87.1698 119.028 86.899 118.782 86.4697C118.529 86.0405 118.558 85.5191 118.854 85.1161L123.142 79.2461L120.055 79.2466C119.259 79.2466 118.609 78.6525 118.609 77.9262ZM130.901 72.6438C130.901 71.9175 131.552 71.3234 132.347 71.3234H138.132C138.667 71.3234 139.159 71.5942 139.405 72.0234C139.658 72.4527 139.629 72.9741 139.333 73.377L135.045 79.247L138.132 79.2466C138.928 79.2466 139.578 79.8407 139.578 80.567C139.578 81.2933 138.928 81.8874 138.132 81.8874H132.347C131.812 81.8874 131.32 81.6166 131.075 81.1874C130.821 80.7581 130.851 80.2367 131.147 79.8338L135.435 73.9638L132.347 73.9642C131.552 73.9642 130.901 73.3701 130.901 72.6438Z" fill="white" fill-opacity="0.38"/>
</g>
</svg>
