<svg width="157" height="119" viewBox="0 0 157 119" fill="none" xmlns="http://www.w3.org/2000/svg">
<path d="M0.53125 4.7218C0.53125 2.51266 2.32211 0.721802 4.53125 0.721802H152.528C154.738 0.721802 156.528 2.51266 156.528 4.7218V114.722C156.528 116.931 154.738 118.722 152.528 118.722H4.53125C2.32211 118.722 0.53125 116.931 0.53125 114.722V4.7218Z" fill="#69C0FF"/>
<mask id="mask0_9_11994" style="mask-type:alpha" maskUnits="userSpaceOnUse" x="91" y="58" width="66" height="61">
<rect x="91.9141" y="58.7218" width="64.6142" height="60" fill="#C4C4C4"/>
</mask>
<g mask="url(#mask0_9_11994)">
<path d="M151.161 97.0767C151.161 98.1664 150.696 99.2122 149.868 99.9826C149.04 100.753 147.916 101.186 146.745 101.186V103.926C148.696 103.923 150.567 103.201 151.947 101.918C153.326 100.633 154.102 98.8923 154.104 97.0766C154.104 95.9868 154.569 94.941 155.397 94.1706C156.225 93.4002 157.349 92.9671 158.52 92.9671V90.2274C156.569 90.2298 154.698 90.9521 153.318 92.2357C151.939 93.5199 151.163 95.2609 151.161 97.0767Z" fill="white" fill-opacity="0.38"/>
<path d="M140.859 117.624H143.802V120.364H140.859V117.624Z" fill="white" fill-opacity="0.38"/>
<path d="M118.781 97.0766C118.783 98.8923 119.559 100.633 120.939 101.918C122.318 103.201 124.189 103.923 126.14 103.926V101.186C124.969 101.186 123.845 100.753 123.017 99.9826C122.19 99.2121 121.724 98.1663 121.724 97.0766C121.722 95.2609 120.946 93.5199 119.567 92.2357C118.187 90.9521 116.316 90.2299 114.366 90.2274V92.9671C115.536 92.9671 116.66 93.4001 117.488 94.1706C118.315 94.9412 118.781 95.987 118.781 97.0766Z" fill="white" fill-opacity="0.38"/>
<path d="M108.479 113.515H111.423C111.423 112.425 111.888 111.379 112.716 110.609C113.544 109.839 114.667 109.405 115.838 109.405V106.666C113.887 106.668 112.016 107.39 110.637 108.674C109.258 109.958 108.482 111.699 108.479 113.515L108.479 113.515Z" fill="white" fill-opacity="0.38"/>
<path d="M92.9866 92.7634C93.4203 93.0135 93.9624 93.0362 94.4183 92.824L100.305 90.0843C100.805 89.8519 101.119 89.3773 101.119 88.8581V84.7486C101.116 83.9016 100.831 83.0766 100.304 82.3862C99.7771 81.6957 99.034 81.1735 98.176 80.8909V78.4662L106.012 85.7595C101.977 88.2931 99.5847 92.5475 99.6477 97.0773C99.632 100.874 101.516 104.462 104.744 106.784C102.226 110.38 101.898 114.935 103.878 118.811C105.859 122.687 109.862 125.325 114.448 125.777C114.848 128.865 116.638 131.649 119.373 133.436C122.109 135.222 125.53 135.843 128.786 135.143C132.042 134.443 134.826 132.489 136.442 129.767C138.058 132.489 140.841 134.443 144.098 135.143C147.353 135.843 150.775 135.222 153.511 133.436C156.246 131.649 158.036 128.865 158.436 125.777C163.022 125.325 167.025 122.687 169.006 118.811C170.986 114.935 170.658 110.38 168.14 106.784C171.368 104.462 173.252 100.874 173.236 97.0773C173.291 92.6289 170.982 88.443 167.067 85.891L180.043 76.2292C180.456 75.9222 180.659 75.4324 180.577 74.9462C180.494 74.4607 180.138 74.0528 179.644 73.8791L136.963 58.8107C136.615 58.6878 136.231 58.6927 135.887 58.823L96.1498 73.8913C95.6944 74.0656 95.3633 74.4393 95.2667 74.8881C95.2496 74.9786 95.2417 75.0704 95.2444 75.1621H95.2325V80.894C94.3751 81.1759 93.632 81.6976 93.1051 82.3874C92.5788 83.0778 92.2937 83.9022 92.2891 84.7486V91.5978C92.2891 92.0724 92.5525 92.5139 92.9868 92.7634L92.9866 92.7634ZM134.97 97.2143C133.309 97.5322 131.816 98.3731 130.744 99.5962C129.671 100.819 129.085 102.348 129.083 103.927C129.083 105.016 128.618 106.062 127.79 106.832C126.962 107.603 125.838 108.036 124.668 108.036V110.776C126.618 110.773 128.489 110.051 129.869 108.767C131.248 107.483 132.024 105.742 132.026 103.926C132.03 103.079 132.315 102.254 132.842 101.564C133.369 100.874 134.112 100.351 134.97 100.069V124.474C134.97 126.654 134.039 128.744 132.384 130.286C130.727 131.827 128.482 132.693 126.139 132.693C123.797 132.693 121.551 131.827 119.895 130.286C118.239 128.744 117.309 126.654 117.309 124.474C117.309 122.294 118.239 120.204 119.895 118.662C121.551 117.121 123.797 116.255 126.139 116.255V113.515C123.292 113.52 120.541 114.484 118.399 116.229C116.255 117.975 114.864 120.384 114.483 123.011C111.016 122.559 108.033 120.498 106.563 117.54C105.093 114.582 105.337 111.133 107.213 108.38C109.087 105.628 112.335 103.951 115.837 103.926V101.187C114.367 101.186 112.907 101.413 111.517 101.858C110.229 101.197 109.253 100.11 108.785 98.812C108.316 97.5143 108.387 96.0999 108.984 94.8487C109.581 93.5975 110.661 92.6001 112.01 92.0539L110.833 89.5429C108.064 90.6651 106.105 93.0275 105.639 95.8044C105.173 98.5814 106.266 101.387 108.535 103.241C107.851 103.66 107.211 104.136 106.622 104.664C104.074 102.864 102.581 100.055 102.591 97.077C102.541 95.0993 103.094 93.1491 104.186 91.452C105.278 89.755 106.864 88.3809 108.76 87.4881H134.97L134.97 97.2143ZM109.95 84.7486V79.2692H162.933V84.7486H109.95ZM170.292 97.0773C170.3 100.055 168.806 102.864 166.257 104.663C165.668 104.134 165.027 103.658 164.343 103.24C166.613 101.386 167.705 98.5804 167.24 95.8034C166.774 93.0265 164.815 90.664 162.046 89.5419L160.868 92.0528C162.218 92.5989 163.297 93.5958 163.895 94.8477C164.492 96.0989 164.564 97.5133 164.094 98.811C163.625 100.109 162.65 101.196 161.362 101.856C159.973 101.413 158.515 101.186 157.046 101.187V103.927C160.548 103.951 163.796 105.628 165.671 108.38C167.546 111.133 167.79 114.583 166.32 117.541C164.851 120.498 161.868 122.559 158.4 123.011C158.019 120.384 156.628 117.975 154.485 116.229C152.342 114.484 149.592 113.52 146.744 113.515V116.255C149.086 116.255 151.332 117.121 152.988 118.662C154.644 120.204 155.575 122.294 155.575 124.474C155.575 126.654 154.644 128.745 152.988 130.286C151.332 131.827 149.086 132.693 146.744 132.693C144.402 132.693 142.156 131.827 140.499 130.286C138.844 128.745 137.913 126.654 137.913 124.474V100.069C138.771 100.352 139.515 100.874 140.041 101.564C140.568 102.255 140.853 103.08 140.857 103.927C140.859 105.742 141.635 107.483 143.014 108.768C144.394 110.051 146.265 110.773 148.216 110.776V108.036C147.045 108.036 145.921 107.603 145.093 106.833C144.266 106.062 143.8 105.016 143.8 103.927C143.798 102.348 143.212 100.819 142.139 99.5964C141.067 98.3733 139.574 97.5324 137.913 97.2144V87.4885H164.123C166.019 88.3813 167.605 89.7554 168.697 91.4525C169.789 93.1495 170.342 95.0997 170.292 97.0775L170.292 97.0773ZM136.46 61.5645L176.189 75.5889L165.877 83.2698V77.8998C165.877 77.5366 165.721 77.188 165.446 76.9312C165.17 76.6743 164.795 76.53 164.405 76.53H108.478C107.665 76.53 107.006 77.1434 107.006 77.8998V82.8124L99.3114 75.6506L136.46 61.5645ZM95.2321 84.7486C95.2321 83.9921 95.8912 83.3788 96.7039 83.3788C97.5167 83.3788 98.1757 83.9921 98.1757 84.7486V88.0118L95.2321 89.3817V84.7486Z" fill="white" fill-opacity="0.38"/>
<path d="M154.102 71.0491H157.045V73.7888H154.102V71.0491Z" fill="white" fill-opacity="0.38"/>
<path d="M148.215 71.0491H151.159V73.7888H148.215V71.0491Z" fill="white" fill-opacity="0.38"/>
</g>
</svg>
