<svg width="157" height="119" viewBox="0 0 157 119" fill="none" xmlns="http://www.w3.org/2000/svg">
<path d="M0.53125 4.7218C0.53125 2.51266 2.32211 0.721802 4.53125 0.721802H152.531C154.74 0.721802 156.531 2.51266 156.531 4.7218V114.722C156.531 116.931 154.74 118.722 152.531 118.722H4.53125C2.32211 118.722 0.53125 116.931 0.53125 114.722V4.7218Z" fill="#69C0FF"/>
<mask id="mask0_9_12010" style="mask-type:alpha" maskUnits="userSpaceOnUse" x="91" y="58" width="66" height="61">
<rect x="91.9141" y="58.3741" width="64.6154" height="60" fill="#C4C4C4"/>
</mask>
<g mask="url(#mask0_9_12010)">
<path d="M153.683 95.1325C152.031 94.7392 150.667 94.3459 149.519 93.8215C149.447 93.7561 149.375 93.7561 149.232 93.6902C148.873 93.4936 148.513 93.2969 148.155 93.1003C143.919 90.5436 138.965 85.8888 139.396 77.8911C139.468 77.1699 138.822 76.58 138.104 76.5141C137.96 76.5141 124.32 75.4651 123.243 68.5815C122.525 64.1892 118.72 62.4849 116.782 62.2225C116.207 62.1571 115.705 62.3537 115.346 62.747L104.648 76.7762C104.576 76.8416 104.504 76.9074 104.433 77.0382C104.361 77.1036 104.361 77.1695 104.361 77.2348L95.889 88.2487C95.8174 88.3141 95.8174 88.3799 95.7453 88.5107C95.7453 88.5761 95.6737 88.6419 95.6737 88.6419V88.7073V88.8386V88.9698C95.602 89.0357 95.602 89.0357 95.602 89.1011V89.2323C95.602 89.2977 95.602 89.3636 95.6737 89.3636V89.4289C95.6737 89.4943 95.7453 89.5602 95.7453 89.5602C95.7453 89.5602 95.7453 89.6256 95.8169 89.6256C95.8169 89.691 95.8885 89.7568 95.9606 89.7568C95.9606 89.7568 95.9606 89.8222 96.0322 89.8222C96.1038 89.8876 96.1038 89.8876 96.176 89.9535L96.2476 90.0188L133.58 114.078C133.724 114.144 133.796 114.21 133.939 114.21C134.155 114.406 134.514 114.472 134.801 114.472H158.781C159.571 114.472 160.217 113.882 160.217 113.161V102.671C160.217 99.1313 157.488 95.9848 153.683 95.1325ZM117.14 65.0418C118.216 65.4351 120.011 66.484 120.37 68.9754C121.591 76.4485 132.575 78.5465 136.524 79.0057C136.524 80.5792 136.739 82.0869 137.098 83.398L132.575 84.4466C131.785 84.6432 131.355 85.3643 131.498 86.02C131.642 86.61 132.216 87.0032 132.863 87.0032C133.006 87.0032 133.078 87.0032 133.222 86.9378L137.888 85.8888C138.534 87.4623 139.396 88.7734 140.401 89.9532L136.237 93.1656C135.663 93.6248 135.591 94.4767 136.093 95.0012C136.38 95.3291 136.811 95.4604 137.17 95.4604C137.529 95.4604 137.816 95.3291 138.103 95.1325L142.196 91.9201C143.704 93.3623 145.211 94.4114 146.504 95.1979H146.575L143.919 98.607C143.488 99.1969 143.632 99.9839 144.278 100.443C144.565 100.639 144.853 100.705 145.14 100.705C145.57 100.705 146.001 100.508 146.288 100.18L149.16 96.509C150.309 96.9682 151.529 97.2956 152.965 97.6235C155.55 98.2134 157.344 100.311 157.344 102.737V105.359L137.099 105.359L109.673 87.5279C110.319 86.3481 110.678 85.0366 110.678 83.7256C110.678 81.3001 109.53 79.0708 107.592 77.4319L117.14 65.0418ZM105.94 79.5955C107.089 80.7099 107.806 82.1522 107.806 83.7257C107.806 84.5122 107.591 85.2992 107.304 86.0204L103.14 83.3324L105.94 79.5955ZM157.344 111.915H135.16L99.0477 88.6423L101.489 85.4299L135.806 107.719C135.878 107.719 135.878 107.785 135.95 107.785C135.95 107.785 136.021 107.785 136.021 107.85C136.093 107.85 136.093 107.85 136.165 107.916C136.237 107.916 136.237 107.916 136.309 107.981H136.452H136.596L157.345 107.982L157.344 111.915ZM119.294 113.226C119.294 113.947 118.647 114.537 117.858 114.537L109.242 114.538C108.452 114.538 107.806 113.948 107.806 113.227C107.806 112.505 108.452 111.916 109.242 111.916H117.857C118.648 111.915 119.294 112.505 119.294 113.226ZM107.089 106.67C107.089 107.392 106.443 107.981 105.653 107.981L97.0373 107.982C96.2476 107.982 95.6016 107.392 95.6016 106.671C95.6016 105.95 96.2476 105.36 97.0373 105.36H105.652C106.442 105.359 107.089 105.949 107.089 106.67Z" fill="white" fill-opacity="0.38"/>
</g>
</svg>
